<svg xmlns="http://www.w3.org/2000/svg" xmlns:xlink="http://www.w3.org/1999/xlink" width="90" zoomAndPan="magnify" viewBox="0 0 67.5 44.999999" height="60" preserveAspectRatio="xMidYMid meet" version="1.0"><defs><g/><clipPath id="3ea4717c81"><path d="M 9.074219 2.234375 L 40.773438 2.234375 L 40.773438 27.855469 L 9.074219 27.855469 Z M 9.074219 2.234375 " clip-rule="nonzero"/></clipPath><clipPath id="101e2083c6"><path d="M 26 2.234375 L 36 2.234375 L 36 9 L 26 9 Z M 26 2.234375 " clip-rule="nonzero"/></clipPath></defs><g clip-path="url(#3ea4717c81)"><path fill="#ffffff" d="M 35.738281 20.824219 C 35.398438 20.484375 34.867188 20.558594 34.566406 20.929688 L 33.058594 22.808594 L 25.667969 15.125 C 25.652344 15.109375 25.636719 15.097656 25.621094 15.082031 L 25.621094 2.746094 C 25.621094 2.460938 25.394531 2.234375 25.113281 2.234375 C 24.828125 2.234375 24.601562 2.460938 24.601562 2.746094 L 24.601562 15.089844 C 24.566406 15.121094 24.53125 15.15625 24.503906 15.195312 L 20.152344 21.019531 L 17.410156 18.945312 C 17.078125 18.691406 16.601562 18.753906 16.347656 19.085938 L 8.132812 28.578125 L 8.132812 34.335938 L 10.085938 30.269531 L 11.890625 29.644531 L 11.644531 30.230469 C 11.425781 30.75 11.996094 31.132812 12.398438 30.851562 L 14.859375 29.144531 L 16.535156 28.230469 C 16.605469 28.195312 16.671875 28.148438 16.722656 28.082031 L 21.351562 22.042969 L 23.789062 24.671875 C 23.894531 24.8125 24.070312 24.894531 24.261719 24.871094 L 25.851562 24.375 L 25.851562 25.570312 C 25.851562 25.902344 26.164062 26.144531 26.484375 26.0625 L 29.144531 25.382812 L 28.519531 26.925781 L 26.34375 28.175781 C 26.277344 28.207031 26.214844 28.257812 26.167969 28.316406 L 24.542969 30.359375 L 24.222656 29.695312 C 24.09375 29.429688 23.769531 29.328125 23.511719 29.476562 L 18.9375 32.105469 L 16.664062 31.503906 C 16.511719 31.460938 16.34375 31.496094 16.210938 31.605469 L 12.234375 34.914062 L 25.289062 34.914062 L 31.21875 27.53125 C 32.21875 28.472656 31.914062 28.410156 33.28125 27.890625 L 34.246094 29.453125 C 34.378906 29.667969 34.660156 29.78125 34.886719 29.65625 L 36.808594 28.570312 L 36.699219 29.871094 L 35.964844 31.351562 L 34.566406 30.808594 C 34.394531 30.742188 34.1875 30.773438 34.042969 30.90625 L 31.828125 32.910156 L 29.441406 32.832031 C 29.324219 32.820312 29.207031 32.851562 29.101562 32.921875 L 26.886719 34.480469 C 26.714844 34.589844 26.640625 34.753906 26.640625 34.914062 L 40.816406 34.914062 L 40.816406 25.902344 Z M 19.222656 23.125 L 16.921875 23.316406 C 16.820312 23.324219 16.722656 23.363281 16.640625 23.429688 L 14.164062 25.476562 L 13.160156 25.441406 L 13.03125 25.25 L 17.058594 20.59375 L 19.65625 22.5625 Z M 28.53125 21.578125 L 27.09375 21.136719 C 26.933594 21.085938 26.757812 21.117188 26.621094 21.230469 L 24.796875 22.722656 L 22.332031 20.660156 L 25.191406 16.832031 L 29.234375 21.035156 Z M 36.5625 26.460938 L 35.085938 27.226562 L 34.125 26.339844 C 33.996094 26.21875 33.804688 26.171875 33.625 26.230469 L 32.542969 26.578125 L 32.199219 26.3125 L 35.257812 22.511719 L 37.769531 25.023438 Z M 36.5625 26.460938 " fill-opacity="1" fill-rule="nonzero"/></g><g clip-path="url(#101e2083c6)"><path fill="#ffffff" d="M 35.324219 7.851562 C 33.835938 8.050781 32.324219 8.339844 30.855469 7.851562 C 29.34375 7.347656 27.878906 7.570312 26.386719 7.851562 C 26.386719 7 26.386719 6.148438 26.386719 5.300781 C 26.386719 4.449219 26.386719 3.597656 26.386719 2.746094 C 27.878906 2.460938 29.34375 2.242188 30.855469 2.746094 C 32.324219 3.234375 33.835938 2.945312 35.324219 2.746094 C 34.882812 3.648438 34.460938 4.554688 34.046875 5.472656 C 34.484375 6.265625 34.914062 7.050781 35.324219 7.851562 Z M 35.324219 7.851562 " fill-opacity="1" fill-rule="evenodd"/></g><g fill="#ffffff" fill-opacity="1"><g transform="translate(8.546833, 37.721189)"><g><path d="M 0.5 -0.671875 L 0.5 -2.046875 L 4.046875 -7.046875 L 0.609375 -7.078125 L 0.609375 -9.09375 L 7.125 -9.09375 L 7.125 -7.71875 L 3.65625 -2.78125 L 7.515625 -2.75 L 7.515625 -0.671875 Z M 0.5 -0.671875 "/></g></g></g><g fill="#207bff" fill-opacity="1"><g transform="translate(16.559328, 37.721189)"><g><path d="M 4.828125 -12.515625 C 5.046875 -12.554688 5.3125 -12.578125 5.625 -12.578125 C 5.820312 -12.578125 6.132812 -12.5625 6.5625 -12.53125 C 7 -12.5 7.367188 -12.441406 7.671875 -12.359375 C 8.710938 -12.035156 9.445312 -11.410156 9.875 -10.484375 C 9.882812 -10.453125 9.898438 -10.410156 9.921875 -10.359375 C 10.066406 -10.054688 10.140625 -9.835938 10.140625 -9.703125 C 10.140625 -9.679688 10.125 -9.632812 10.09375 -9.5625 C 10.070312 -9.5 9.828125 -9.335938 9.359375 -9.078125 C 9.304688 -9.046875 9.265625 -9.023438 9.234375 -9.015625 C 8.597656 -8.671875 8.265625 -8.5 8.234375 -8.5 C 8.203125 -8.5 8.125 -8.597656 8 -8.796875 C 7.65625 -9.328125 7.238281 -9.691406 6.75 -9.890625 C 6.488281 -9.984375 6.265625 -10.03125 6.078125 -10.03125 C 5.890625 -10.039062 5.785156 -10.046875 5.765625 -10.046875 C 5.441406 -10.046875 5.164062 -10 4.9375 -9.90625 C 4.394531 -9.738281 3.972656 -9.347656 3.671875 -8.734375 C 3.378906 -8.128906 3.234375 -7.375 3.234375 -6.46875 C 3.242188 -5.363281 3.476562 -4.503906 3.9375 -3.890625 C 4.40625 -3.285156 5.050781 -2.984375 5.875 -2.984375 C 6.644531 -2.992188 7.332031 -3.332031 7.9375 -4 C 8.25 -4.332031 8.40625 -4.523438 8.40625 -4.578125 C 8.40625 -4.617188 8.429688 -4.640625 8.484375 -4.640625 C 8.628906 -4.640625 8.96875 -4.476562 9.5 -4.15625 C 9.875 -3.9375 10.097656 -3.789062 10.171875 -3.71875 C 10.242188 -3.65625 10.28125 -3.582031 10.28125 -3.5 C 10.28125 -3.476562 10.28125 -3.460938 10.28125 -3.453125 C 10.269531 -3.304688 10.175781 -3.0625 10 -2.71875 C 9.78125 -2.238281 9.429688 -1.816406 8.953125 -1.453125 C 8.484375 -1.085938 7.941406 -0.820312 7.328125 -0.65625 C 6.960938 -0.5625 6.421875 -0.515625 5.703125 -0.515625 C 4.984375 -0.515625 4.441406 -0.5625 4.078125 -0.65625 C 2.253906 -1.15625 1.070312 -2.394531 0.53125 -4.375 C 0.414062 -4.800781 0.359375 -5.453125 0.359375 -6.328125 C 0.359375 -7.117188 0.398438 -7.734375 0.484375 -8.171875 C 0.578125 -8.609375 0.765625 -9.113281 1.046875 -9.6875 C 1.804688 -11.25 3.066406 -12.191406 4.828125 -12.515625 Z M 4.828125 -12.515625 "/></g></g></g><g fill="#ffffff" fill-opacity="1"><g transform="translate(27.138455, 37.721189)"><g><path d="M 4.59375 -9.203125 C 4.75 -9.273438 4.945312 -9.3125 5.1875 -9.3125 C 5.289062 -9.3125 5.410156 -9.304688 5.546875 -9.296875 C 5.679688 -9.285156 5.859375 -9.238281 6.078125 -9.15625 L 5.90625 -7.296875 C 5.625 -7.296875 5.320312 -7.269531 5 -7.21875 C 4.6875 -7.164062 4.476562 -7.125 4.375 -7.09375 C 4.269531 -7.0625 4.15625 -6.992188 4.03125 -6.890625 C 3.863281 -6.742188 3.707031 -6.53125 3.5625 -6.25 C 3.425781 -5.976562 3.335938 -5.710938 3.296875 -5.453125 C 3.234375 -5.203125 3.203125 -4.398438 3.203125 -3.046875 L 3.203125 -0.6875 L 0.59375 -0.6875 L 0.59375 -9.09375 L 3.125 -9.09375 L 3.171875 -7.59375 L 3.4375 -8.03125 C 3.582031 -8.28125 3.757812 -8.515625 3.96875 -8.734375 C 4.1875 -8.953125 4.394531 -9.109375 4.59375 -9.203125 Z M 4.59375 -9.203125 "/></g></g></g><g fill="#ffffff" fill-opacity="1"><g transform="translate(33.334411, 37.721189)"><g><path d="M 3.0625 -9.09375 C 3.332031 -8.34375 3.503906 -7.90625 3.578125 -7.78125 C 3.691406 -7.5 3.828125 -7.171875 3.984375 -6.796875 C 4.140625 -6.421875 4.265625 -6.125 4.359375 -5.90625 C 4.453125 -5.6875 4.507812 -5.546875 4.53125 -5.484375 L 4.703125 -5.109375 L 6.15625 -9.09375 L 8.78125 -9.09375 L 6.515625 -3.25 C 5.710938 -1.175781 5.191406 0.0703125 4.953125 0.5 C 4.710938 0.925781 4.476562 1.265625 4.25 1.515625 C 3.851562 1.898438 3.28125 2.125 2.53125 2.1875 C 2.457031 2.1875 2.390625 2.1875 2.328125 2.1875 C 2.078125 2.1875 1.765625 2.164062 1.390625 2.125 C 1.015625 2.09375 0.8125 2.054688 0.78125 2.015625 C 0.75 1.972656 0.734375 1.910156 0.734375 1.828125 C 0.734375 1.597656 0.785156 1.097656 0.890625 0.328125 L 0.921875 0.0625 L 1.359375 0.0625 C 1.835938 0.0625 2.191406 -0.03125 2.421875 -0.21875 C 2.660156 -0.40625 2.898438 -0.765625 3.140625 -1.296875 L 3.46875 -2.09375 L 2.421875 -4.40625 L 0.421875 -9.09375 Z M 3.0625 -9.09375 "/></g></g></g><g fill="#ffffff" fill-opacity="1"><g transform="translate(42.450755, 37.721189)"><g><path d="M 0.59375 2.109375 L 0.59375 -9.09375 L 3.0625 -9.09375 L 3.0625 -8.828125 C 3.0625 -8.703125 3.066406 -8.628906 3.078125 -8.609375 C 3.085938 -8.585938 3.109375 -8.578125 3.140625 -8.578125 C 3.148438 -8.578125 3.171875 -8.578125 3.203125 -8.578125 C 3.867188 -9.054688 4.507812 -9.296875 5.125 -9.296875 C 5.5 -9.296875 6.007812 -9.203125 6.65625 -9.015625 C 7.300781 -8.835938 7.835938 -8.316406 8.265625 -7.453125 C 8.546875 -6.835938 8.6875 -6.144531 8.6875 -5.375 C 8.6875 -4.945312 8.644531 -4.488281 8.5625 -4 C 8.4375 -3.21875 8.128906 -2.566406 7.640625 -2.046875 C 7.160156 -1.523438 6.5625 -1.195312 5.84375 -1.0625 C 5.601562 -1.019531 5.335938 -1 5.046875 -1 C 4.878906 -1 4.625 -1.007812 4.28125 -1.03125 C 3.9375 -1.050781 3.65625 -1.113281 3.4375 -1.21875 L 3.0625 -1.375 L 3.0625 2.109375 Z M 5.171875 -6.84375 C 4.960938 -6.9375 4.6875 -6.984375 4.34375 -6.984375 C 4 -6.984375 3.695312 -6.945312 3.4375 -6.875 L 3.0625 -6.53125 L 3.0625 -3.328125 L 3.359375 -3.28125 C 3.585938 -3.195312 3.882812 -3.15625 4.25 -3.15625 C 4.625 -3.15625 4.910156 -3.207031 5.109375 -3.3125 C 5.671875 -3.601562 5.976562 -4.128906 6.03125 -4.890625 C 6.050781 -4.984375 6.0625 -5.082031 6.0625 -5.1875 C 6.0625 -5.519531 5.988281 -5.84375 5.84375 -6.15625 C 5.707031 -6.46875 5.484375 -6.695312 5.171875 -6.84375 Z M 5.171875 -6.84375 "/></g></g></g><g fill="#ffffff" fill-opacity="1"><g transform="translate(51.428972, 37.721189)"><g><path d="M 1.8125 -10.28125 L 1.8125 -11.421875 L 4.203125 -11.421875 L 4.203125 -9.125 L 6.4375 -9.125 L 6.4375 -7.046875 L 4.109375 -7.046875 L 4.140625 -5.125 C 4.171875 -4.050781 4.207031 -3.398438 4.25 -3.171875 C 4.300781 -2.953125 4.453125 -2.800781 4.703125 -2.71875 C 5.066406 -2.601562 5.476562 -2.644531 5.9375 -2.84375 L 6.171875 -2.9375 L 6.4375 -2.328125 L 6.6875 -1.734375 L 6.515625 -1.4375 C 6.328125 -1.144531 6.046875 -0.914062 5.671875 -0.75 C 5.304688 -0.582031 4.894531 -0.5 4.4375 -0.5 C 3.394531 -0.5 2.660156 -0.804688 2.234375 -1.421875 C 2.035156 -1.710938 1.910156 -2.023438 1.859375 -2.359375 C 1.816406 -2.703125 1.78125 -3.5 1.75 -4.75 L 1.71875 -7.046875 L 0.234375 -7.046875 L 0.234375 -9.125 L 1.8125 -9.125 Z M 1.8125 -10.28125 "/></g></g></g><g fill="#000000" fill-opacity="1"><g transform="translate(27.897771, 5.599411)"><g><path d="M 0.03125 -0.046875 L 0.03125 -0.15625 L 0.3125 -0.53125 L 0.046875 -0.53125 L 0.046875 -0.6875 L 0.546875 -0.6875 L 0.546875 -0.59375 L 0.28125 -0.21875 L 0.578125 -0.203125 L 0.578125 -0.046875 Z M 0.03125 -0.046875 "/></g></g></g><g fill="#000000" fill-opacity="1"><g transform="translate(28.508286, 5.599411)"><g><path d="M 0.375 -0.953125 C 0.382812 -0.953125 0.398438 -0.953125 0.421875 -0.953125 C 0.441406 -0.953125 0.46875 -0.953125 0.5 -0.953125 C 0.53125 -0.953125 0.554688 -0.945312 0.578125 -0.9375 C 0.660156 -0.914062 0.71875 -0.867188 0.75 -0.796875 C 0.75 -0.796875 0.75 -0.789062 0.75 -0.78125 C 0.757812 -0.757812 0.765625 -0.742188 0.765625 -0.734375 C 0.765625 -0.734375 0.765625 -0.726562 0.765625 -0.71875 C 0.765625 -0.71875 0.75 -0.707031 0.71875 -0.6875 C 0.707031 -0.6875 0.703125 -0.6875 0.703125 -0.6875 C 0.648438 -0.65625 0.625 -0.640625 0.625 -0.640625 C 0.625 -0.640625 0.617188 -0.648438 0.609375 -0.671875 C 0.578125 -0.710938 0.546875 -0.738281 0.515625 -0.75 C 0.492188 -0.757812 0.472656 -0.765625 0.453125 -0.765625 C 0.441406 -0.765625 0.4375 -0.765625 0.4375 -0.765625 C 0.414062 -0.765625 0.394531 -0.757812 0.375 -0.75 C 0.332031 -0.738281 0.300781 -0.707031 0.28125 -0.65625 C 0.257812 -0.613281 0.25 -0.554688 0.25 -0.484375 C 0.25 -0.398438 0.265625 -0.332031 0.296875 -0.28125 C 0.335938 -0.238281 0.390625 -0.21875 0.453125 -0.21875 C 0.503906 -0.226562 0.554688 -0.253906 0.609375 -0.296875 C 0.628906 -0.328125 0.640625 -0.34375 0.640625 -0.34375 C 0.640625 -0.351562 0.640625 -0.359375 0.640625 -0.359375 C 0.648438 -0.359375 0.675781 -0.34375 0.71875 -0.3125 C 0.75 -0.300781 0.765625 -0.289062 0.765625 -0.28125 C 0.773438 -0.28125 0.78125 -0.273438 0.78125 -0.265625 C 0.78125 -0.253906 0.773438 -0.234375 0.765625 -0.203125 C 0.742188 -0.171875 0.710938 -0.140625 0.671875 -0.109375 C 0.640625 -0.078125 0.601562 -0.0546875 0.5625 -0.046875 C 0.53125 -0.0351562 0.484375 -0.03125 0.421875 -0.03125 C 0.367188 -0.03125 0.332031 -0.0351562 0.3125 -0.046875 C 0.175781 -0.0859375 0.0859375 -0.179688 0.046875 -0.328125 C 0.0351562 -0.359375 0.03125 -0.410156 0.03125 -0.484375 C 0.03125 -0.546875 0.03125 -0.59375 0.03125 -0.625 C 0.0390625 -0.65625 0.0546875 -0.691406 0.078125 -0.734375 C 0.140625 -0.859375 0.238281 -0.929688 0.375 -0.953125 Z M 0.375 -0.953125 "/></g></g></g><g fill="#000000" fill-opacity="1"><g transform="translate(29.314286, 5.599411)"><g><path d="M 0.34375 -0.703125 C 0.363281 -0.703125 0.378906 -0.703125 0.390625 -0.703125 C 0.398438 -0.703125 0.410156 -0.703125 0.421875 -0.703125 C 0.429688 -0.703125 0.445312 -0.703125 0.46875 -0.703125 L 0.453125 -0.5625 C 0.429688 -0.5625 0.40625 -0.554688 0.375 -0.546875 C 0.351562 -0.546875 0.335938 -0.539062 0.328125 -0.53125 C 0.328125 -0.53125 0.320312 -0.53125 0.3125 -0.53125 C 0.289062 -0.507812 0.273438 -0.488281 0.265625 -0.46875 C 0.253906 -0.445312 0.25 -0.425781 0.25 -0.40625 C 0.25 -0.394531 0.25 -0.335938 0.25 -0.234375 L 0.25 -0.046875 L 0.046875 -0.046875 L 0.046875 -0.6875 L 0.234375 -0.6875 L 0.234375 -0.578125 L 0.265625 -0.609375 C 0.273438 -0.628906 0.285156 -0.644531 0.296875 -0.65625 C 0.316406 -0.675781 0.332031 -0.691406 0.34375 -0.703125 Z M 0.34375 -0.703125 "/></g></g></g><g fill="#000000" fill-opacity="1"><g transform="translate(29.786458, 5.599411)"><g><path d="M 0.234375 -0.6875 C 0.253906 -0.632812 0.265625 -0.601562 0.265625 -0.59375 C 0.273438 -0.570312 0.285156 -0.546875 0.296875 -0.515625 C 0.316406 -0.484375 0.328125 -0.457031 0.328125 -0.4375 C 0.335938 -0.425781 0.34375 -0.421875 0.34375 -0.421875 L 0.359375 -0.390625 L 0.46875 -0.6875 L 0.671875 -0.6875 L 0.5 -0.25 C 0.4375 -0.09375 0.394531 0 0.375 0.03125 C 0.351562 0.0703125 0.335938 0.0976562 0.328125 0.109375 C 0.296875 0.140625 0.25 0.160156 0.1875 0.171875 C 0.1875 0.171875 0.179688 0.171875 0.171875 0.171875 C 0.160156 0.171875 0.140625 0.164062 0.109375 0.15625 C 0.078125 0.15625 0.0625 0.15625 0.0625 0.15625 C 0.0625 0.15625 0.0625 0.148438 0.0625 0.140625 C 0.0625 0.117188 0.0625 0.0820312 0.0625 0.03125 L 0.078125 0 L 0.109375 0 C 0.140625 0 0.164062 -0.00390625 0.1875 -0.015625 C 0.207031 -0.0234375 0.222656 -0.0507812 0.234375 -0.09375 L 0.265625 -0.15625 L 0.1875 -0.328125 L 0.03125 -0.6875 Z M 0.234375 -0.6875 "/></g></g></g><g fill="#000000" fill-opacity="1"><g transform="translate(30.481182, 5.599411)"><g><path d="M 0.046875 0.15625 L 0.046875 -0.6875 L 0.234375 -0.6875 L 0.234375 -0.671875 C 0.234375 -0.660156 0.234375 -0.65625 0.234375 -0.65625 C 0.234375 -0.65625 0.238281 -0.65625 0.25 -0.65625 C 0.289062 -0.6875 0.335938 -0.703125 0.390625 -0.703125 C 0.421875 -0.703125 0.457031 -0.695312 0.5 -0.6875 C 0.550781 -0.675781 0.59375 -0.632812 0.625 -0.5625 C 0.644531 -0.519531 0.65625 -0.46875 0.65625 -0.40625 C 0.65625 -0.375 0.65625 -0.335938 0.65625 -0.296875 C 0.644531 -0.242188 0.617188 -0.195312 0.578125 -0.15625 C 0.546875 -0.113281 0.5 -0.0859375 0.4375 -0.078125 C 0.425781 -0.078125 0.410156 -0.078125 0.390625 -0.078125 C 0.367188 -0.078125 0.34375 -0.078125 0.3125 -0.078125 C 0.289062 -0.078125 0.273438 -0.0820312 0.265625 -0.09375 L 0.234375 -0.109375 L 0.234375 0.15625 Z M 0.390625 -0.515625 C 0.378906 -0.523438 0.359375 -0.53125 0.328125 -0.53125 C 0.304688 -0.53125 0.285156 -0.523438 0.265625 -0.515625 L 0.234375 -0.5 L 0.234375 -0.25 L 0.25 -0.25 C 0.269531 -0.238281 0.289062 -0.234375 0.3125 -0.234375 C 0.34375 -0.234375 0.367188 -0.238281 0.390625 -0.25 C 0.429688 -0.269531 0.453125 -0.3125 0.453125 -0.375 C 0.453125 -0.375 0.453125 -0.378906 0.453125 -0.390625 C 0.453125 -0.421875 0.445312 -0.445312 0.4375 -0.46875 C 0.425781 -0.488281 0.410156 -0.503906 0.390625 -0.515625 Z M 0.390625 -0.515625 "/></g></g></g><g fill="#000000" fill-opacity="1"><g transform="translate(31.16538, 5.599411)"><g><path d="M 0.140625 -0.78125 L 0.140625 -0.875 L 0.3125 -0.875 L 0.3125 -0.6875 L 0.484375 -0.6875 L 0.484375 -0.53125 L 0.3125 -0.53125 L 0.3125 -0.390625 C 0.3125 -0.304688 0.3125 -0.253906 0.3125 -0.234375 C 0.320312 -0.222656 0.335938 -0.210938 0.359375 -0.203125 C 0.390625 -0.191406 0.421875 -0.195312 0.453125 -0.21875 L 0.46875 -0.21875 L 0.484375 -0.171875 L 0.515625 -0.125 L 0.5 -0.109375 C 0.476562 -0.0859375 0.453125 -0.0664062 0.421875 -0.046875 C 0.398438 -0.0351562 0.375 -0.03125 0.34375 -0.03125 C 0.257812 -0.03125 0.203125 -0.0546875 0.171875 -0.109375 C 0.148438 -0.128906 0.140625 -0.148438 0.140625 -0.171875 C 0.140625 -0.203125 0.140625 -0.265625 0.140625 -0.359375 L 0.125 -0.53125 L 0.015625 -0.53125 L 0.015625 -0.6875 L 0.140625 -0.6875 Z M 0.140625 -0.78125 "/></g></g></g></svg>