<svg xmlns="http://www.w3.org/2000/svg" xmlns:xlink="http://www.w3.org/1999/xlink" width="1920" zoomAndPan="magnify" viewBox="0 0 1440 809.999993" height="1080" preserveAspectRatio="xMidYMid meet" version="1.0"><defs><clipPath id="daa029db29"><path d="M 1277.257812 327.082031 L 1440 327.082031 L 1440 652.582031 L 1277.257812 652.582031 Z M 1277.257812 327.082031 " clip-rule="nonzero"/></clipPath><clipPath id="37ab53256c"><path d="M 1236.464844 141.320312 L 1380.464844 141.320312 L 1380.464844 285.320312 L 1236.464844 285.320312 Z M 1236.464844 141.320312 " clip-rule="nonzero"/></clipPath><clipPath id="7d5c57c9dc"><path d="M 0 0 L 41 0 L 41 39 L 0 39 Z M 0 0 " clip-rule="nonzero"/></clipPath><clipPath id="a39e0c113e"><path d="M 8.972656 100.269531 L -37.167969 54.128906 L 55.640625 -38.679688 L 101.777344 7.460938 Z M 8.972656 100.269531 " clip-rule="nonzero"/></clipPath><clipPath id="69500bd958"><path d="M 8.972656 100.269531 L -37.167969 54.128906 L 55.640625 -38.679688 L 101.777344 7.460938 Z M 8.972656 100.269531 " clip-rule="nonzero"/></clipPath><clipPath id="89d68d2b44"><path d="M 0 0 L 44 0 L 44 42 L 0 42 Z M 0 0 " clip-rule="nonzero"/></clipPath><clipPath id="4c95736ee4"><path d="M 8.972656 100.269531 L -37.167969 54.128906 L 55.640625 -38.679688 L 101.777344 7.460938 Z M 8.972656 100.269531 " clip-rule="nonzero"/></clipPath><clipPath id="1a26b1533a"><path d="M 8.972656 100.269531 L -37.167969 54.128906 L 55.640625 -38.679688 L 101.777344 7.460938 Z M 8.972656 100.269531 " clip-rule="nonzero"/></clipPath><clipPath id="4d5f97a87b"><path d="M 0 0 L 46 0 L 46 45 L 0 45 Z M 0 0 " clip-rule="nonzero"/></clipPath><clipPath id="fd6d184fe5"><path d="M 8.972656 100.269531 L -37.167969 54.128906 L 55.640625 -38.679688 L 101.777344 7.460938 Z M 8.972656 100.269531 " clip-rule="nonzero"/></clipPath><clipPath id="c6a0b2fcc4"><path d="M 8.972656 100.269531 L -37.167969 54.128906 L 55.640625 -38.679688 L 101.777344 7.460938 Z M 8.972656 100.269531 " clip-rule="nonzero"/></clipPath><clipPath id="409ee16f47"><path d="M 0 0 L 49 0 L 49 48 L 0 48 Z M 0 0 " clip-rule="nonzero"/></clipPath><clipPath id="cb1e91aa62"><path d="M 8.972656 100.269531 L -37.167969 54.128906 L 55.640625 -38.679688 L 101.777344 7.460938 Z M 8.972656 100.269531 " clip-rule="nonzero"/></clipPath><clipPath id="5cc3ea2871"><path d="M 8.972656 100.269531 L -37.167969 54.128906 L 55.640625 -38.679688 L 101.777344 7.460938 Z M 8.972656 100.269531 " clip-rule="nonzero"/></clipPath><clipPath id="04cf0c6976"><path d="M 0 0 L 52 0 L 52 51 L 0 51 Z M 0 0 " clip-rule="nonzero"/></clipPath><clipPath id="c1c6dde73e"><path d="M 8.972656 100.269531 L -37.167969 54.128906 L 55.640625 -38.679688 L 101.777344 7.460938 Z M 8.972656 100.269531 " clip-rule="nonzero"/></clipPath><clipPath id="c67b77fbd6"><path d="M 8.972656 100.269531 L -37.167969 54.128906 L 55.640625 -38.679688 L 101.777344 7.460938 Z M 8.972656 100.269531 " clip-rule="nonzero"/></clipPath><clipPath id="b7ca268ddc"><path d="M 0 0 L 55 0 L 55 54 L 0 54 Z M 0 0 " clip-rule="nonzero"/></clipPath><clipPath id="f26e27fffd"><path d="M 8.972656 100.269531 L -37.167969 54.128906 L 55.640625 -38.679688 L 101.777344 7.460938 Z M 8.972656 100.269531 " clip-rule="nonzero"/></clipPath><clipPath id="c0c12345f5"><path d="M 8.972656 100.269531 L -37.167969 54.128906 L 55.640625 -38.679688 L 101.777344 7.460938 Z M 8.972656 100.269531 " clip-rule="nonzero"/></clipPath><clipPath id="6f2041c70d"><path d="M 0 0 L 58 0 L 58 56 L 0 56 Z M 0 0 " clip-rule="nonzero"/></clipPath><clipPath id="98a094159d"><path d="M 8.972656 100.269531 L -37.167969 54.128906 L 55.640625 -38.679688 L 101.777344 7.460938 Z M 8.972656 100.269531 " clip-rule="nonzero"/></clipPath><clipPath id="e035e120c6"><path d="M 8.972656 100.269531 L -37.167969 54.128906 L 55.640625 -38.679688 L 101.777344 7.460938 Z M 8.972656 100.269531 " clip-rule="nonzero"/></clipPath><clipPath id="fe404c4c8c"><path d="M 0 0 L 61 0 L 61 59 L 0 59 Z M 0 0 " clip-rule="nonzero"/></clipPath><clipPath id="4889f732d8"><path d="M 8.972656 100.269531 L -37.167969 54.128906 L 55.640625 -38.679688 L 101.777344 7.460938 Z M 8.972656 100.269531 " clip-rule="nonzero"/></clipPath><clipPath id="e0f9d02a80"><path d="M 8.972656 100.269531 L -37.167969 54.128906 L 55.640625 -38.679688 L 101.777344 7.460938 Z M 8.972656 100.269531 " clip-rule="nonzero"/></clipPath><clipPath id="c1423fa2ec"><path d="M 0 0 L 64 0 L 64 62 L 0 62 Z M 0 0 " clip-rule="nonzero"/></clipPath><clipPath id="bf32a8c6a9"><path d="M 8.972656 100.269531 L -37.167969 54.128906 L 55.640625 -38.679688 L 101.777344 7.460938 Z M 8.972656 100.269531 " clip-rule="nonzero"/></clipPath><clipPath id="e8ec42f017"><path d="M 8.972656 100.269531 L -37.167969 54.128906 L 55.640625 -38.679688 L 101.777344 7.460938 Z M 8.972656 100.269531 " clip-rule="nonzero"/></clipPath><clipPath id="b1d7a74a62"><path d="M 0 0 L 66 0 L 66 65 L 0 65 Z M 0 0 " clip-rule="nonzero"/></clipPath><clipPath id="7e24e08ca7"><path d="M 8.972656 100.269531 L -37.167969 54.128906 L 55.640625 -38.679688 L 101.777344 7.460938 Z M 8.972656 100.269531 " clip-rule="nonzero"/></clipPath><clipPath id="583465e8fe"><path d="M 8.972656 100.269531 L -37.167969 54.128906 L 55.640625 -38.679688 L 101.777344 7.460938 Z M 8.972656 100.269531 " clip-rule="nonzero"/></clipPath><clipPath id="1d3df9b1b8"><path d="M 0 0 L 69 0 L 69 68 L 0 68 Z M 0 0 " clip-rule="nonzero"/></clipPath><clipPath id="fd87b0e653"><path d="M 8.972656 100.269531 L -37.167969 54.128906 L 55.640625 -38.679688 L 101.777344 7.460938 Z M 8.972656 100.269531 " clip-rule="nonzero"/></clipPath><clipPath id="7209a1e37d"><path d="M 8.972656 100.269531 L -37.167969 54.128906 L 55.640625 -38.679688 L 101.777344 7.460938 Z M 8.972656 100.269531 " clip-rule="nonzero"/></clipPath><clipPath id="44d87e6a22"><path d="M 0 0 L 72 0 L 72 71 L 0 71 Z M 0 0 " clip-rule="nonzero"/></clipPath><clipPath id="e5a8268ee1"><path d="M 8.972656 100.269531 L -37.167969 54.128906 L 55.640625 -38.679688 L 101.777344 7.460938 Z M 8.972656 100.269531 " clip-rule="nonzero"/></clipPath><clipPath id="87cf8424a1"><path d="M 8.972656 100.269531 L -37.167969 54.128906 L 55.640625 -38.679688 L 101.777344 7.460938 Z M 8.972656 100.269531 " clip-rule="nonzero"/></clipPath><clipPath id="502b04e15c"><path d="M 0 0 L 75 0 L 75 74 L 0 74 Z M 0 0 " clip-rule="nonzero"/></clipPath><clipPath id="96b18c4955"><path d="M 8.972656 100.269531 L -37.167969 54.128906 L 55.640625 -38.679688 L 101.777344 7.460938 Z M 8.972656 100.269531 " clip-rule="nonzero"/></clipPath><clipPath id="9aaa5d7d76"><path d="M 8.972656 100.269531 L -37.167969 54.128906 L 55.640625 -38.679688 L 101.777344 7.460938 Z M 8.972656 100.269531 " clip-rule="nonzero"/></clipPath><clipPath id="b313fd197c"><path d="M 1277.257812 327.101562 L 1440 327.101562 L 1440 655.601562 L 1277.257812 655.601562 Z M 1277.257812 327.101562 " clip-rule="nonzero"/></clipPath><clipPath id="2eb8b6a99f"><path d="M 1286.859375 336.703125 L 1440 336.703125 L 1440 646.453125 L 1286.859375 646.453125 Z M 1286.859375 336.703125 " clip-rule="nonzero"/></clipPath><clipPath id="b63654db11"><path d="M 1297.621094 347.464844 L 1440 347.464844 L 1440 635.464844 L 1297.621094 635.464844 Z M 1297.621094 347.464844 " clip-rule="nonzero"/></clipPath><clipPath id="cc12d89d05"><path d="M 1308.460938 353.84375 L 1440 353.84375 L 1440 629.09375 L 1308.460938 629.09375 Z M 1308.460938 353.84375 " clip-rule="nonzero"/></clipPath><clipPath id="7f04a5302e"><path d="M 1319.621094 359.425781 L 1440 359.425781 L 1440 623.425781 L 1319.621094 623.425781 Z M 1319.621094 359.425781 " clip-rule="nonzero"/></clipPath><clipPath id="73783ec927"><path d="M 1332.703125 365.003906 L 1440 365.003906 L 1440 617.753906 L 1332.703125 617.753906 Z M 1332.703125 365.003906 " clip-rule="nonzero"/></clipPath><clipPath id="509069c21c"><path d="M 1244.15625 149.011719 L 1372.40625 149.011719 L 1372.40625 277.261719 L 1244.15625 277.261719 Z M 1244.15625 149.011719 " clip-rule="nonzero"/></clipPath><clipPath id="bd4816bd1a"><path d="M 1251.039062 155.890625 L 1365.789062 155.890625 L 1365.789062 270.640625 L 1251.039062 270.640625 Z M 1251.039062 155.890625 " clip-rule="nonzero"/></clipPath><clipPath id="9ce7ddf168"><path d="M 1257.917969 162.773438 L 1359.167969 162.773438 L 1359.167969 264.023438 L 1257.917969 264.023438 Z M 1257.917969 162.773438 " clip-rule="nonzero"/></clipPath><clipPath id="24b77a9dc6"><path d="M 1262.703125 167.558594 L 1354.203125 167.558594 L 1354.203125 259.058594 L 1262.703125 259.058594 Z M 1262.703125 167.558594 " clip-rule="nonzero"/></clipPath><clipPath id="7732ca6eb3"><path d="M 1268.871094 173.726562 L 1348.371094 173.726562 L 1348.371094 253.226562 L 1268.871094 253.226562 Z M 1268.871094 173.726562 " clip-rule="nonzero"/></clipPath><clipPath id="4af56710b8"><path d="M 1237.277344 141.320312 L 1380.527344 141.320312 L 1380.527344 284.570312 L 1237.277344 284.570312 Z M 1237.277344 141.320312 " clip-rule="nonzero"/></clipPath></defs><g clip-path="url(#daa029db29)"><path fill="#2179f8" d="M 1439.996094 327.109375 L 1439.996094 394.710938 C 1387.535156 394.710938 1344.859375 437.386719 1344.859375 489.847656 C 1344.859375 542.304688 1387.535156 584.976562 1439.996094 584.976562 L 1439.996094 652.582031 C 1350.257812 652.582031 1277.257812 579.578125 1277.257812 489.847656 C 1277.257812 400.113281 1350.257812 327.109375 1439.996094 327.109375 Z M 1439.996094 327.109375 " fill-opacity="1" fill-rule="nonzero"/></g><g clip-path="url(#37ab53256c)"><path fill="#2179f8" d="M 1308.453125 141.320312 C 1307.277344 141.320312 1306.097656 141.347656 1304.921875 141.40625 C 1303.746094 141.464844 1302.570312 141.550781 1301.398438 141.667969 C 1300.226562 141.78125 1299.058594 141.925781 1297.890625 142.097656 C 1296.726562 142.273438 1295.566406 142.472656 1294.410156 142.703125 C 1293.253906 142.933594 1292.105469 143.191406 1290.964844 143.476562 C 1289.820312 143.765625 1288.683594 144.078125 1287.558594 144.417969 C 1286.429688 144.761719 1285.3125 145.132812 1284.203125 145.527344 C 1283.09375 145.925781 1281.996094 146.347656 1280.90625 146.800781 C 1279.816406 147.25 1278.742188 147.726562 1277.675781 148.230469 C 1276.609375 148.734375 1275.558594 149.265625 1274.519531 149.820312 C 1273.480469 150.375 1272.457031 150.957031 1271.445312 151.5625 C 1270.433594 152.167969 1269.441406 152.796875 1268.460938 153.453125 C 1267.480469 154.105469 1266.515625 154.785156 1265.570312 155.488281 C 1264.625 156.1875 1263.695312 156.914062 1262.785156 157.660156 C 1261.875 158.40625 1260.984375 159.175781 1260.109375 159.96875 C 1259.238281 160.757812 1258.382812 161.570312 1257.550781 162.40625 C 1256.71875 163.238281 1255.90625 164.089844 1255.113281 164.964844 C 1254.324219 165.835938 1253.554688 166.730469 1252.808594 167.640625 C 1252.058594 168.550781 1251.335938 169.480469 1250.632812 170.425781 C 1249.929688 171.371094 1249.253906 172.335938 1248.597656 173.3125 C 1247.945312 174.292969 1247.3125 175.289062 1246.707031 176.300781 C 1246.101562 177.308594 1245.523438 178.335938 1244.964844 179.375 C 1244.410156 180.414062 1243.882812 181.464844 1243.378906 182.53125 C 1242.875 183.59375 1242.398438 184.671875 1241.945312 185.757812 C 1241.496094 186.847656 1241.070312 187.945312 1240.675781 189.054688 C 1240.277344 190.164062 1239.90625 191.285156 1239.566406 192.410156 C 1239.222656 193.539062 1238.910156 194.671875 1238.625 195.816406 C 1238.335938 196.960938 1238.078125 198.109375 1237.847656 199.265625 C 1237.621094 200.417969 1237.417969 201.582031 1237.246094 202.746094 C 1237.074219 203.910156 1236.929688 205.078125 1236.8125 206.253906 C 1236.699219 207.425781 1236.609375 208.597656 1236.554688 209.777344 C 1236.496094 210.953125 1236.464844 212.128906 1236.464844 213.308594 C 1236.464844 214.488281 1236.496094 215.664062 1236.554688 216.839844 C 1236.609375 218.015625 1236.699219 219.191406 1236.8125 220.363281 C 1236.929688 221.535156 1237.074219 222.707031 1237.246094 223.871094 C 1237.417969 225.035156 1237.621094 226.195312 1237.847656 227.351562 C 1238.078125 228.507812 1238.335938 229.65625 1238.625 230.800781 C 1238.910156 231.941406 1239.222656 233.078125 1239.566406 234.207031 C 1239.90625 235.332031 1240.277344 236.453125 1240.675781 237.558594 C 1241.070312 238.667969 1241.496094 239.769531 1241.945312 240.855469 C 1242.398438 241.945312 1242.875 243.023438 1243.378906 244.085938 C 1243.882812 245.152344 1244.410156 246.203125 1244.964844 247.242188 C 1245.523438 248.28125 1246.101562 249.308594 1246.707031 250.316406 C 1247.3125 251.328125 1247.945312 252.324219 1248.597656 253.304688 C 1249.253906 254.28125 1249.929688 255.246094 1250.632812 256.191406 C 1251.335938 257.136719 1252.058594 258.066406 1252.808594 258.976562 C 1253.554688 259.886719 1254.324219 260.78125 1255.113281 261.652344 C 1255.90625 262.527344 1256.71875 263.378906 1257.550781 264.210938 C 1258.382812 265.042969 1259.238281 265.855469 1260.109375 266.648438 C 1260.984375 267.4375 1261.875 268.207031 1262.785156 268.957031 C 1263.695312 269.703125 1264.625 270.429688 1265.570312 271.128906 C 1266.515625 271.832031 1267.480469 272.511719 1268.460938 273.164062 C 1269.441406 273.820312 1270.433594 274.449219 1271.445312 275.054688 C 1272.457031 275.660156 1273.480469 276.242188 1274.519531 276.796875 C 1275.558594 277.351562 1276.609375 277.882812 1277.675781 278.386719 C 1278.742188 278.890625 1279.816406 279.367188 1280.90625 279.816406 C 1281.996094 280.269531 1283.09375 280.691406 1284.203125 281.089844 C 1285.3125 281.484375 1286.429688 281.855469 1287.558594 282.195312 C 1288.683594 282.539062 1289.820312 282.851562 1290.964844 283.140625 C 1292.105469 283.425781 1293.253906 283.683594 1294.410156 283.914062 C 1295.566406 284.144531 1296.726562 284.34375 1297.890625 284.515625 C 1299.058594 284.691406 1300.226562 284.835938 1301.398438 284.949219 C 1302.570312 285.066406 1303.746094 285.152344 1304.921875 285.210938 C 1306.097656 285.269531 1307.277344 285.296875 1308.453125 285.296875 C 1309.632812 285.296875 1310.808594 285.269531 1311.988281 285.210938 C 1313.164062 285.152344 1314.339844 285.066406 1315.511719 284.949219 C 1316.683594 284.835938 1317.851562 284.691406 1319.015625 284.515625 C 1320.183594 284.34375 1321.34375 284.144531 1322.5 283.914062 C 1323.65625 283.683594 1324.804688 283.425781 1325.945312 283.140625 C 1327.089844 282.851562 1328.222656 282.539062 1329.351562 282.195312 C 1330.480469 281.855469 1331.597656 281.484375 1332.707031 281.089844 C 1333.816406 280.691406 1334.914062 280.269531 1336.003906 279.816406 C 1337.089844 279.367188 1338.167969 278.890625 1339.234375 278.386719 C 1340.296875 277.882812 1341.351562 277.351562 1342.390625 276.796875 C 1343.429688 276.242188 1344.453125 275.660156 1345.464844 275.054688 C 1346.472656 274.449219 1347.46875 273.820312 1348.449219 273.164062 C 1349.429688 272.511719 1350.390625 271.832031 1351.339844 271.128906 C 1352.285156 270.429688 1353.210938 269.703125 1354.125 268.957031 C 1355.035156 268.207031 1355.925781 267.4375 1356.800781 266.648438 C 1357.671875 265.855469 1358.523438 265.042969 1359.359375 264.210938 C 1360.191406 263.378906 1361.003906 262.527344 1361.792969 261.652344 C 1362.585938 260.78125 1363.355469 259.886719 1364.101562 258.976562 C 1364.851562 258.066406 1365.574219 257.136719 1366.277344 256.191406 C 1366.976562 255.246094 1367.65625 254.28125 1368.3125 253.304688 C 1368.964844 252.324219 1369.59375 251.328125 1370.199219 250.316406 C 1370.808594 249.308594 1371.386719 248.28125 1371.941406 247.242188 C 1372.496094 246.203125 1373.027344 245.152344 1373.53125 244.085938 C 1374.035156 243.023438 1374.511719 241.945312 1374.964844 240.855469 C 1375.414062 239.769531 1375.835938 238.667969 1376.234375 237.558594 C 1376.632812 236.453125 1377 235.332031 1377.34375 234.207031 C 1377.683594 233.078125 1378 231.941406 1378.285156 230.800781 C 1378.570312 229.65625 1378.828125 228.507812 1379.058594 227.351562 C 1379.289062 226.195312 1379.492188 225.035156 1379.664062 223.871094 C 1379.835938 222.707031 1379.980469 221.535156 1380.097656 220.363281 C 1380.210938 219.191406 1380.296875 218.015625 1380.355469 216.839844 C 1380.414062 215.664062 1380.441406 214.488281 1380.441406 213.308594 C 1380.441406 212.128906 1380.414062 210.953125 1380.355469 209.777344 C 1380.296875 208.597656 1380.210938 207.425781 1380.097656 206.253906 C 1379.980469 205.078125 1379.835938 203.910156 1379.664062 202.746094 C 1379.492188 201.582031 1379.289062 200.417969 1379.058594 199.265625 C 1378.828125 198.109375 1378.570312 196.960938 1378.285156 195.816406 C 1378 194.671875 1377.683594 193.539062 1377.34375 192.410156 C 1377 191.285156 1376.632812 190.164062 1376.234375 189.054688 C 1375.835938 187.945312 1375.414062 186.847656 1374.964844 185.757812 C 1374.511719 184.671875 1374.035156 183.59375 1373.53125 182.53125 C 1373.027344 181.464844 1372.496094 180.414062 1371.941406 179.375 C 1371.386719 178.335938 1370.808594 177.308594 1370.199219 176.300781 C 1369.59375 175.289062 1368.964844 174.292969 1368.3125 173.3125 C 1367.65625 172.335938 1366.976562 171.371094 1366.277344 170.425781 C 1365.574219 169.480469 1364.851562 168.550781 1364.101562 167.640625 C 1363.355469 166.730469 1362.585938 165.835938 1361.792969 164.964844 C 1361.003906 164.089844 1360.191406 163.238281 1359.359375 162.40625 C 1358.523438 161.570312 1357.671875 160.757812 1356.800781 159.96875 C 1355.925781 159.175781 1355.035156 158.40625 1354.125 157.660156 C 1353.210938 156.914062 1352.285156 156.1875 1351.339844 155.488281 C 1350.390625 154.785156 1349.429688 154.105469 1348.449219 153.453125 C 1347.46875 152.796875 1346.472656 152.167969 1345.464844 151.5625 C 1344.453125 150.957031 1343.429688 150.375 1342.390625 149.820312 C 1341.351562 149.265625 1340.296875 148.734375 1339.234375 148.230469 C 1338.167969 147.726562 1337.089844 147.25 1336.003906 146.800781 C 1334.914062 146.347656 1333.816406 145.925781 1332.707031 145.527344 C 1331.597656 145.132812 1330.480469 144.761719 1329.351562 144.417969 C 1328.222656 144.078125 1327.089844 143.765625 1325.945312 143.476562 C 1324.804688 143.191406 1323.65625 142.933594 1322.5 142.703125 C 1321.34375 142.472656 1320.183594 142.273438 1319.015625 142.097656 C 1317.851562 141.925781 1316.683594 141.78125 1315.511719 141.667969 C 1314.339844 141.550781 1313.164062 141.464844 1311.988281 141.40625 C 1310.808594 141.347656 1309.632812 141.320312 1308.453125 141.320312 Z M 1308.453125 234.90625 C 1307.746094 234.90625 1307.042969 234.871094 1306.335938 234.800781 C 1305.632812 234.730469 1304.933594 234.628906 1304.242188 234.488281 C 1303.546875 234.351562 1302.863281 234.179688 1302.183594 233.976562 C 1301.507812 233.769531 1300.84375 233.53125 1300.191406 233.261719 C 1299.535156 232.988281 1298.898438 232.6875 1298.273438 232.355469 C 1297.648438 232.019531 1297.042969 231.65625 1296.457031 231.265625 C 1295.867188 230.871094 1295.300781 230.453125 1294.753906 230.003906 C 1294.207031 229.554688 1293.683594 229.078125 1293.183594 228.578125 C 1292.683594 228.078125 1292.210938 227.554688 1291.761719 227.007812 C 1291.3125 226.460938 1290.890625 225.894531 1290.496094 225.308594 C 1290.105469 224.71875 1289.742188 224.113281 1289.410156 223.488281 C 1289.074219 222.863281 1288.773438 222.226562 1288.503906 221.574219 C 1288.230469 220.917969 1287.992188 220.253906 1287.789062 219.578125 C 1287.582031 218.902344 1287.410156 218.214844 1287.273438 217.523438 C 1287.136719 216.828125 1287.03125 216.128906 1286.960938 215.425781 C 1286.894531 214.722656 1286.859375 214.015625 1286.859375 213.308594 C 1286.859375 212.601562 1286.894531 211.894531 1286.960938 211.191406 C 1287.03125 210.488281 1287.136719 209.789062 1287.273438 209.09375 C 1287.410156 208.402344 1287.582031 207.714844 1287.789062 207.039062 C 1287.992188 206.363281 1288.230469 205.695312 1288.503906 205.042969 C 1288.773438 204.390625 1289.074219 203.75 1289.410156 203.128906 C 1289.742188 202.503906 1290.105469 201.898438 1290.496094 201.308594 C 1290.890625 200.722656 1291.3125 200.15625 1291.761719 199.609375 C 1292.210938 199.0625 1292.683594 198.539062 1293.183594 198.039062 C 1293.683594 197.539062 1294.207031 197.0625 1294.753906 196.613281 C 1295.300781 196.164062 1295.867188 195.746094 1296.457031 195.351562 C 1297.042969 194.957031 1297.648438 194.59375 1298.273438 194.261719 C 1298.898438 193.929688 1299.535156 193.625 1300.191406 193.355469 C 1300.84375 193.085938 1301.507812 192.847656 1302.183594 192.640625 C 1302.863281 192.4375 1303.546875 192.265625 1304.242188 192.125 C 1304.933594 191.988281 1305.632812 191.886719 1306.335938 191.816406 C 1307.042969 191.746094 1307.746094 191.710938 1308.453125 191.710938 C 1309.160156 191.710938 1309.867188 191.746094 1310.570312 191.816406 C 1311.273438 191.886719 1311.972656 191.988281 1312.667969 192.125 C 1313.363281 192.265625 1314.046875 192.4375 1314.722656 192.640625 C 1315.402344 192.847656 1316.066406 193.085938 1316.71875 193.355469 C 1317.371094 193.625 1318.011719 193.929688 1318.636719 194.261719 C 1319.257812 194.59375 1319.863281 194.957031 1320.453125 195.351562 C 1321.042969 195.746094 1321.609375 196.164062 1322.15625 196.613281 C 1322.703125 197.0625 1323.226562 197.539062 1323.726562 198.039062 C 1324.226562 198.539062 1324.699219 199.0625 1325.148438 199.609375 C 1325.597656 200.15625 1326.019531 200.722656 1326.410156 201.308594 C 1326.804688 201.898438 1327.167969 202.503906 1327.5 203.128906 C 1327.835938 203.75 1328.136719 204.390625 1328.40625 205.042969 C 1328.679688 205.695312 1328.914062 206.363281 1329.121094 207.039062 C 1329.328125 207.714844 1329.5 208.402344 1329.636719 209.09375 C 1329.773438 209.789062 1329.878906 210.488281 1329.945312 211.191406 C 1330.015625 211.894531 1330.050781 212.601562 1330.050781 213.308594 C 1330.050781 214.015625 1330.015625 214.722656 1329.945312 215.425781 C 1329.878906 216.128906 1329.773438 216.828125 1329.636719 217.523438 C 1329.5 218.214844 1329.328125 218.902344 1329.121094 219.578125 C 1328.914062 220.253906 1328.679688 220.917969 1328.40625 221.574219 C 1328.136719 222.226562 1327.835938 222.863281 1327.5 223.488281 C 1327.167969 224.113281 1326.804688 224.71875 1326.410156 225.308594 C 1326.019531 225.894531 1325.597656 226.460938 1325.148438 227.007812 C 1324.699219 227.554688 1324.226562 228.078125 1323.726562 228.578125 C 1323.226562 229.078125 1322.703125 229.554688 1322.15625 230.003906 C 1321.609375 230.453125 1321.042969 230.871094 1320.453125 231.265625 C 1319.863281 231.65625 1319.257812 232.019531 1318.636719 232.355469 C 1318.011719 232.6875 1317.371094 232.988281 1316.71875 233.261719 C 1316.066406 233.53125 1315.402344 233.769531 1314.722656 233.976562 C 1314.046875 234.179688 1313.363281 234.351562 1312.667969 234.488281 C 1311.972656 234.628906 1311.273438 234.730469 1310.570312 234.800781 C 1309.867188 234.871094 1309.160156 234.90625 1308.453125 234.90625 Z M 1308.453125 234.90625 " fill-opacity="1" fill-rule="nonzero"/></g><path fill="#2179f8" d="M 9 -62.988281 C 7.824219 -62.988281 6.644531 -62.957031 5.46875 -62.898438 C 4.292969 -62.84375 3.117188 -62.753906 1.945312 -62.640625 C 0.773438 -62.523438 -0.394531 -62.378906 -1.5625 -62.207031 C -2.726562 -62.035156 -3.886719 -61.832031 -5.042969 -61.605469 C -6.199219 -61.375 -7.347656 -61.117188 -8.492188 -60.828125 C -9.632812 -60.542969 -10.769531 -60.230469 -11.894531 -59.886719 C -13.023438 -59.546875 -14.140625 -59.175781 -15.25 -58.777344 C -16.359375 -58.382812 -17.460938 -57.957031 -18.546875 -57.507812 C -19.636719 -57.054688 -20.710938 -56.578125 -21.777344 -56.074219 C -22.84375 -55.570312 -23.894531 -55.042969 -24.933594 -54.488281 C -25.972656 -53.929688 -26.996094 -53.351562 -28.007812 -52.746094 C -29.019531 -52.140625 -30.015625 -51.507812 -30.992188 -50.855469 C -31.972656 -50.199219 -32.9375 -49.523438 -33.882812 -48.820312 C -34.828125 -48.117188 -35.757812 -47.394531 -36.667969 -46.644531 C -37.578125 -45.898438 -38.46875 -45.128906 -39.34375 -44.339844 C -40.214844 -43.546875 -41.070312 -42.734375 -41.902344 -41.902344 C -42.734375 -41.070312 -43.546875 -40.214844 -44.339844 -39.34375 C -45.128906 -38.46875 -45.898438 -37.578125 -46.644531 -36.667969 C -47.394531 -35.757812 -48.117188 -34.828125 -48.820312 -33.882812 C -49.523438 -32.9375 -50.199219 -31.972656 -50.855469 -30.992188 C -51.507812 -30.015625 -52.140625 -29.019531 -52.746094 -28.007812 C -53.351562 -26.996094 -53.929688 -25.972656 -54.488281 -24.933594 C -55.042969 -23.894531 -55.570312 -22.84375 -56.074219 -21.777344 C -56.578125 -20.710938 -57.054688 -19.636719 -57.507812 -18.546875 C -57.957031 -17.460938 -58.382812 -16.359375 -58.777344 -15.25 C -59.175781 -14.140625 -59.546875 -13.023438 -59.886719 -11.894531 C -60.230469 -10.769531 -60.542969 -9.632812 -60.828125 -8.492188 C -61.117188 -7.347656 -61.375 -6.199219 -61.605469 -5.042969 C -61.832031 -3.886719 -62.035156 -2.726562 -62.207031 -1.5625 C -62.378906 -0.394531 -62.523438 0.773438 -62.640625 1.945312 C -62.753906 3.117188 -62.84375 4.292969 -62.898438 5.46875 C -62.957031 6.644531 -62.988281 7.824219 -62.988281 9 C -62.988281 10.179688 -62.957031 11.355469 -62.898438 12.535156 C -62.84375 13.710938 -62.753906 14.886719 -62.640625 16.058594 C -62.523438 17.230469 -62.378906 18.398438 -62.207031 19.5625 C -62.035156 20.730469 -61.832031 21.890625 -61.605469 23.046875 C -61.375 24.199219 -61.117188 25.351562 -60.828125 26.492188 C -60.542969 27.636719 -60.230469 28.769531 -59.886719 29.898438 C -59.546875 31.027344 -59.175781 32.144531 -58.777344 33.253906 C -58.382812 34.363281 -57.957031 35.460938 -57.507812 36.550781 C -57.054688 37.636719 -56.578125 38.714844 -56.074219 39.78125 C -55.570312 40.84375 -55.042969 41.898438 -54.488281 42.9375 C -53.929688 43.976562 -53.351562 45 -52.746094 46.011719 C -52.140625 47.019531 -51.507812 48.015625 -50.855469 48.996094 C -50.199219 49.976562 -49.523438 50.9375 -48.820312 51.882812 C -48.117188 52.832031 -47.394531 53.757812 -46.644531 54.671875 C -45.898438 55.582031 -45.128906 56.472656 -44.339844 57.34375 C -43.546875 58.21875 -42.734375 59.070312 -41.902344 59.90625 C -41.070312 60.738281 -40.214844 61.550781 -39.34375 62.339844 C -38.46875 63.132812 -37.578125 63.902344 -36.667969 64.648438 C -35.757812 65.394531 -34.828125 66.121094 -33.882812 66.824219 C -32.9375 67.523438 -31.972656 68.203125 -30.992188 68.855469 C -30.015625 69.511719 -29.019531 70.140625 -28.007812 70.746094 C -26.996094 71.351562 -25.972656 71.933594 -24.933594 72.488281 C -23.894531 73.042969 -22.84375 73.574219 -21.777344 74.078125 C -20.710938 74.582031 -19.636719 75.058594 -18.546875 75.507812 C -17.460938 75.960938 -16.359375 76.382812 -15.25 76.78125 C -14.140625 77.179688 -13.023438 77.546875 -11.894531 77.890625 C -10.769531 78.230469 -9.632812 78.546875 -8.492188 78.832031 C -7.347656 79.117188 -6.199219 79.375 -5.042969 79.605469 C -3.886719 79.835938 -2.726562 80.039062 -1.5625 80.210938 C -0.394531 80.382812 0.773438 80.527344 1.945312 80.644531 C 3.117188 80.757812 4.292969 80.84375 5.46875 80.902344 C 6.644531 80.960938 7.824219 80.988281 9 80.988281 C 10.179688 80.988281 11.355469 80.960938 12.535156 80.902344 C 13.710938 80.84375 14.886719 80.757812 16.058594 80.644531 C 17.230469 80.527344 18.398438 80.382812 19.5625 80.210938 C 20.730469 80.039062 21.890625 79.835938 23.046875 79.605469 C 24.199219 79.375 25.351562 79.117188 26.492188 78.832031 C 27.636719 78.546875 28.769531 78.230469 29.898438 77.890625 C 31.027344 77.546875 32.144531 77.179688 33.253906 76.78125 C 34.363281 76.382812 35.460938 75.960938 36.550781 75.507812 C 37.636719 75.058594 38.714844 74.582031 39.78125 74.078125 C 40.84375 73.574219 41.898438 73.042969 42.9375 72.488281 C 43.976562 71.933594 45 71.351562 46.011719 70.746094 C 47.019531 70.140625 48.015625 69.511719 48.996094 68.855469 C 49.976562 68.203125 50.9375 67.523438 51.882812 66.824219 C 52.832031 66.121094 53.757812 65.394531 54.671875 64.648438 C 55.582031 63.902344 56.472656 63.132812 57.34375 62.339844 C 58.21875 61.550781 59.070312 60.738281 59.90625 59.90625 C 60.738281 59.070312 61.550781 58.21875 62.339844 57.34375 C 63.132812 56.472656 63.902344 55.582031 64.648438 54.671875 C 65.394531 53.757812 66.121094 52.832031 66.824219 51.882812 C 67.523438 50.9375 68.203125 49.976562 68.855469 48.996094 C 69.511719 48.015625 70.140625 47.019531 70.746094 46.011719 C 71.351562 45 71.933594 43.976562 72.488281 42.9375 C 73.042969 41.898438 73.574219 40.84375 74.078125 39.78125 C 74.582031 38.714844 75.058594 37.636719 75.507812 36.550781 C 75.960938 35.460938 76.382812 34.363281 76.78125 33.253906 C 77.179688 32.144531 77.546875 31.027344 77.890625 29.898438 C 78.230469 28.769531 78.546875 27.636719 78.832031 26.492188 C 79.117188 25.351562 79.375 24.199219 79.605469 23.046875 C 79.835938 21.890625 80.039062 20.730469 80.210938 19.5625 C 80.382812 18.398438 80.527344 17.230469 80.644531 16.058594 C 80.757812 14.886719 80.84375 13.710938 80.902344 12.535156 C 80.960938 11.355469 80.988281 10.179688 80.988281 9 C 80.988281 7.824219 80.960938 6.644531 80.902344 5.46875 C 80.84375 4.292969 80.757812 3.117188 80.644531 1.945312 C 80.527344 0.773438 80.382812 -0.394531 80.210938 -1.5625 C 80.039062 -2.726562 79.835938 -3.886719 79.605469 -5.042969 C 79.375 -6.199219 79.117188 -7.347656 78.832031 -8.492188 C 78.546875 -9.632812 78.230469 -10.769531 77.890625 -11.894531 C 77.546875 -13.023438 77.179688 -14.140625 76.78125 -15.25 C 76.382812 -16.359375 75.960938 -17.460938 75.507812 -18.546875 C 75.058594 -19.636719 74.582031 -20.710938 74.078125 -21.777344 C 73.574219 -22.84375 73.042969 -23.894531 72.488281 -24.933594 C 71.933594 -25.972656 71.351562 -26.996094 70.746094 -28.007812 C 70.140625 -29.019531 69.511719 -30.015625 68.855469 -30.992188 C 68.203125 -31.972656 67.523438 -32.9375 66.824219 -33.882812 C 66.121094 -34.828125 65.394531 -35.757812 64.648438 -36.667969 C 63.902344 -37.578125 63.132812 -38.46875 62.339844 -39.34375 C 61.550781 -40.214844 60.738281 -41.070312 59.90625 -41.902344 C 59.070312 -42.734375 58.21875 -43.546875 57.34375 -44.339844 C 56.472656 -45.128906 55.582031 -45.898438 54.671875 -46.644531 C 53.757812 -47.394531 52.832031 -48.117188 51.882812 -48.820312 C 50.9375 -49.523438 49.976562 -50.199219 48.996094 -50.855469 C 48.015625 -51.507812 47.019531 -52.140625 46.011719 -52.746094 C 45 -53.351562 43.976562 -53.929688 42.9375 -54.488281 C 41.898438 -55.042969 40.84375 -55.570312 39.78125 -56.074219 C 38.714844 -56.578125 37.636719 -57.054688 36.550781 -57.507812 C 35.460938 -57.957031 34.363281 -58.382812 33.253906 -58.777344 C 32.144531 -59.175781 31.027344 -59.546875 29.898438 -59.886719 C 28.769531 -60.230469 27.636719 -60.542969 26.492188 -60.828125 C 25.351562 -61.117188 24.199219 -61.375 23.046875 -61.605469 C 21.890625 -61.832031 20.730469 -62.035156 19.5625 -62.207031 C 18.398438 -62.378906 17.230469 -62.523438 16.058594 -62.640625 C 14.886719 -62.753906 13.710938 -62.84375 12.535156 -62.898438 C 11.355469 -62.957031 10.179688 -62.988281 9 -62.988281 Z M 9 30.597656 C 8.292969 30.597656 7.589844 30.5625 6.882812 30.492188 C 6.179688 30.425781 5.480469 30.320312 4.789062 30.183594 C 4.09375 30.042969 3.410156 29.875 2.730469 29.667969 C 2.054688 29.460938 1.390625 29.222656 0.738281 28.953125 C 0.0820312 28.683594 -0.554688 28.382812 -1.179688 28.046875 C -1.804688 27.714844 -2.410156 27.351562 -2.996094 26.957031 C -3.585938 26.566406 -4.152344 26.144531 -4.699219 25.695312 C -5.246094 25.246094 -5.769531 24.773438 -6.269531 24.273438 C -6.769531 23.773438 -7.246094 23.25 -7.691406 22.703125 C -8.140625 22.15625 -8.5625 21.585938 -8.957031 21 C -9.347656 20.410156 -9.710938 19.804688 -10.046875 19.183594 C -10.378906 18.558594 -10.679688 17.917969 -10.953125 17.265625 C -11.222656 16.613281 -11.460938 15.945312 -11.664062 15.269531 C -11.871094 14.59375 -12.042969 13.910156 -12.179688 13.214844 C -12.316406 12.519531 -12.421875 11.820312 -12.492188 11.117188 C -12.5625 10.414062 -12.59375 9.707031 -12.59375 9 C -12.59375 8.292969 -12.5625 7.589844 -12.492188 6.882812 C -12.421875 6.179688 -12.316406 5.480469 -12.179688 4.789062 C -12.042969 4.09375 -11.871094 3.410156 -11.664062 2.730469 C -11.460938 2.054688 -11.222656 1.390625 -10.953125 0.738281 C -10.679688 0.0820312 -10.378906 -0.554688 -10.046875 -1.179688 C -9.710938 -1.804688 -9.347656 -2.410156 -8.957031 -2.996094 C -8.5625 -3.585938 -8.140625 -4.152344 -7.691406 -4.699219 C -7.246094 -5.246094 -6.769531 -5.769531 -6.269531 -6.269531 C -5.769531 -6.769531 -5.246094 -7.246094 -4.699219 -7.691406 C -4.152344 -8.140625 -3.585938 -8.5625 -2.996094 -8.957031 C -2.410156 -9.347656 -1.804688 -9.710938 -1.179688 -10.046875 C -0.554688 -10.378906 0.0820312 -10.679688 0.738281 -10.953125 C 1.390625 -11.222656 2.054688 -11.460938 2.730469 -11.664062 C 3.410156 -11.871094 4.09375 -12.042969 4.789062 -12.179688 C 5.480469 -12.316406 6.179688 -12.421875 6.882812 -12.492188 C 7.589844 -12.5625 8.292969 -12.59375 9 -12.59375 C 9.707031 -12.59375 10.414062 -12.5625 11.117188 -12.492188 C 11.820312 -12.421875 12.519531 -12.316406 13.214844 -12.179688 C 13.910156 -12.042969 14.59375 -11.871094 15.269531 -11.664062 C 15.945312 -11.460938 16.613281 -11.222656 17.265625 -10.953125 C 17.917969 -10.679688 18.558594 -10.378906 19.183594 -10.046875 C 19.804688 -9.710938 20.410156 -9.347656 21 -8.957031 C 21.585938 -8.5625 22.15625 -8.140625 22.703125 -7.691406 C 23.25 -7.246094 23.773438 -6.769531 24.273438 -6.269531 C 24.773438 -5.769531 25.246094 -5.246094 25.695312 -4.699219 C 26.144531 -4.152344 26.566406 -3.585938 26.957031 -2.996094 C 27.351562 -2.410156 27.714844 -1.804688 28.046875 -1.179688 C 28.382812 -0.554688 28.683594 0.0820312 28.953125 0.738281 C 29.222656 1.390625 29.460938 2.054688 29.667969 2.730469 C 29.875 3.410156 30.042969 4.09375 30.183594 4.789062 C 30.320312 5.480469 30.425781 6.179688 30.492188 6.882812 C 30.5625 7.589844 30.597656 8.292969 30.597656 9 C 30.597656 9.707031 30.5625 10.414062 30.492188 11.117188 C 30.425781 11.820312 30.320312 12.519531 30.183594 13.214844 C 30.042969 13.910156 29.875 14.59375 29.667969 15.269531 C 29.460938 15.945312 29.222656 16.613281 28.953125 17.265625 C 28.683594 17.917969 28.382812 18.558594 28.046875 19.183594 C 27.714844 19.804688 27.351562 20.410156 26.957031 21 C 26.566406 21.585938 26.144531 22.15625 25.695312 22.703125 C 25.246094 23.25 24.773438 23.773438 24.273438 24.273438 C 23.773438 24.773438 23.25 25.246094 22.703125 25.695312 C 22.15625 26.144531 21.585938 26.566406 21 26.957031 C 20.410156 27.351562 19.804688 27.714844 19.183594 28.046875 C 18.558594 28.382812 17.917969 28.683594 17.265625 28.953125 C 16.613281 29.222656 15.945312 29.460938 15.269531 29.667969 C 14.59375 29.875 13.910156 30.042969 13.214844 30.183594 C 12.519531 30.320312 11.820312 30.425781 11.117188 30.492188 C 10.414062 30.5625 9.707031 30.597656 9 30.597656 Z M 9 30.597656 " fill-opacity="1" fill-rule="nonzero"/><g clip-path="url(#7d5c57c9dc)"><g clip-path="url(#a39e0c113e)"><g clip-path="url(#69500bd958)"><path fill="#ffffff" d="M -13.097656 29.75 L -12.503906 29.15625 C -0.65625 41.007812 18.621094 41.007812 30.472656 29.15625 C 42.320312 17.308594 42.320312 -1.972656 30.472656 -13.820312 L 31.066406 -14.414062 C 43.242188 -2.238281 43.242188 17.574219 31.0625 29.75 C 18.890625 41.925781 -0.921875 41.925781 -13.097656 29.75 " fill-opacity="1" fill-rule="nonzero"/></g></g></g><g clip-path="url(#89d68d2b44)"><g clip-path="url(#4c95736ee4)"><g clip-path="url(#1a26b1533a)"><path fill="#ffffff" d="M -15.117188 31.765625 L -14.523438 31.175781 C -1.5625 44.136719 19.527344 44.136719 32.488281 31.175781 C 45.449219 18.214844 45.449219 -2.875 32.488281 -15.835938 L 33.082031 -16.429688 C 46.371094 -3.140625 46.371094 18.480469 33.082031 31.769531 C 19.792969 45.054688 -1.828125 45.054688 -15.117188 31.765625 " fill-opacity="1" fill-rule="nonzero"/></g></g></g><g clip-path="url(#4d5f97a87b)"><g clip-path="url(#fd6d184fe5)"><g clip-path="url(#c6a0b2fcc4)"><path fill="#ffffff" d="M -17.132812 33.785156 L -16.539062 33.191406 C -2.464844 47.265625 20.433594 47.265625 34.507812 33.191406 C 48.582031 19.117188 48.582031 -3.78125 34.507812 -17.855469 L 35.097656 -18.449219 C 49.5 -4.046875 49.5 19.382812 35.097656 33.785156 C 20.699219 48.183594 -2.730469 48.183594 -17.132812 33.785156 " fill-opacity="1" fill-rule="nonzero"/></g></g></g><g clip-path="url(#409ee16f47)"><g clip-path="url(#cb1e91aa62)"><g clip-path="url(#5cc3ea2871)"><path fill="#ffffff" d="M -19.152344 35.800781 L -18.558594 35.210938 C -3.371094 50.394531 21.339844 50.394531 36.523438 35.210938 C 51.710938 20.023438 51.710938 -4.6875 36.523438 -19.871094 L 37.117188 -20.464844 C 52.628906 -4.953125 52.628906 20.289062 37.117188 35.800781 C 21.605469 51.316406 -3.636719 51.316406 -19.152344 35.800781 " fill-opacity="1" fill-rule="nonzero"/></g></g></g><g clip-path="url(#04cf0c6976)"><g clip-path="url(#c1c6dde73e)"><g clip-path="url(#c67b77fbd6)"><path fill="#ffffff" d="M -21.167969 37.820312 L -20.574219 37.226562 C -4.277344 53.527344 22.242188 53.527344 38.542969 37.226562 C 54.839844 20.929688 54.839844 -5.589844 38.542969 -21.890625 L 39.132812 -22.484375 C 55.761719 -5.855469 55.761719 21.195312 39.132812 37.820312 C 22.507812 54.445312 -4.542969 54.445312 -21.167969 37.820312 " fill-opacity="1" fill-rule="nonzero"/></g></g></g><g clip-path="url(#b7ca268ddc)"><g clip-path="url(#f26e27fffd)"><g clip-path="url(#c0c12345f5)"><path fill="#ffffff" d="M -23.183594 39.835938 L -22.59375 39.242188 C -5.179688 56.65625 23.148438 56.65625 40.558594 39.246094 C 57.96875 21.832031 57.96875 -6.496094 40.558594 -23.90625 L 41.152344 -24.5 C 58.890625 -6.761719 58.890625 22.097656 41.152344 39.835938 C 23.414062 57.574219 -5.445312 57.574219 -23.183594 39.835938 " fill-opacity="1" fill-rule="nonzero"/></g></g></g><g clip-path="url(#6f2041c70d)"><g clip-path="url(#98a094159d)"><g clip-path="url(#e035e120c6)"><path fill="#ffffff" d="M -25.203125 41.855469 L -24.609375 41.261719 C -6.085938 59.785156 24.054688 59.785156 42.578125 41.261719 C 61.101562 22.738281 61.101562 -7.402344 42.578125 -25.925781 L 43.167969 -26.519531 C 62.019531 -7.667969 62.019531 23.003906 43.167969 41.855469 C 24.320312 60.703125 -6.351562 60.703125 -25.203125 41.855469 " fill-opacity="1" fill-rule="nonzero"/></g></g></g><g clip-path="url(#fe404c4c8c)"><g clip-path="url(#4889f732d8)"><g clip-path="url(#e0f9d02a80)"><path fill="#ffffff" d="M -27.21875 43.871094 L -26.628906 43.277344 C -6.992188 62.914062 24.957031 62.914062 44.59375 43.28125 C 64.230469 23.644531 64.230469 -8.304688 44.59375 -27.941406 L 45.1875 -28.535156 C 65.148438 -8.574219 65.148438 23.910156 45.1875 43.871094 C 25.222656 63.835938 -7.257812 63.835938 -27.21875 43.871094 " fill-opacity="1" fill-rule="nonzero"/></g></g></g><g clip-path="url(#c1423fa2ec)"><g clip-path="url(#bf32a8c6a9)"><g clip-path="url(#e8ec42f017)"><path fill="#ffffff" d="M -29.238281 45.890625 L -28.644531 45.296875 C -7.898438 66.042969 25.863281 66.042969 46.609375 45.296875 C 67.359375 24.546875 67.359375 -9.210938 46.613281 -29.960938 L 47.203125 -30.550781 C 68.277344 -9.476562 68.277344 24.8125 47.203125 45.890625 C 26.128906 66.964844 -8.164062 66.964844 -29.238281 45.890625 " fill-opacity="1" fill-rule="nonzero"/></g></g></g><g clip-path="url(#b1d7a74a62)"><g clip-path="url(#7e24e08ca7)"><g clip-path="url(#583465e8fe)"><path fill="#ffffff" d="M -31.253906 47.90625 L -30.664062 47.3125 C -8.800781 69.175781 26.769531 69.175781 48.628906 47.3125 C 70.488281 25.453125 70.488281 -10.117188 48.628906 -31.976562 L 49.222656 -32.570312 C 71.410156 -10.382812 71.410156 25.71875 49.222656 47.90625 C 27.035156 70.09375 -9.066406 70.09375 -31.253906 47.90625 " fill-opacity="1" fill-rule="nonzero"/></g></g></g><g clip-path="url(#1d3df9b1b8)"><g clip-path="url(#fd87b0e653)"><g clip-path="url(#7209a1e37d)"><path fill="#ffffff" d="M -33.320312 49.972656 L -32.730469 49.382812 C -9.730469 72.382812 27.695312 72.382812 50.695312 49.382812 C 73.695312 26.378906 73.695312 -11.042969 50.695312 -34.042969 L 51.289062 -34.636719 C 62.589844 -23.335938 68.8125 -8.3125 68.8125 7.667969 C 68.8125 23.648438 62.589844 38.675781 51.289062 49.972656 C 27.960938 73.300781 -9.996094 73.300781 -33.320312 49.972656 " fill-opacity="1" fill-rule="nonzero"/></g></g></g><g clip-path="url(#44d87e6a22)"><g clip-path="url(#e5a8268ee1)"><g clip-path="url(#87cf8424a1)"><path fill="#ffffff" d="M -35.289062 51.941406 L -34.695312 51.347656 C -10.609375 75.433594 28.578125 75.433594 52.664062 51.351562 C 76.75 27.265625 76.75 -11.925781 52.664062 -36.011719 L 53.257812 -36.605469 C 65.082031 -24.777344 71.59375 -9.054688 71.597656 7.667969 C 71.59375 24.394531 65.082031 40.117188 53.257812 51.941406 C 41.429688 63.769531 25.707031 70.28125 8.984375 70.28125 C -7.742188 70.28125 -23.464844 63.765625 -35.289062 51.941406 " fill-opacity="1" fill-rule="nonzero"/></g></g></g><g clip-path="url(#502b04e15c)"><g clip-path="url(#96b18c4955)"><g clip-path="url(#9aaa5d7d76)"><path fill="#ffffff" d="M -37.308594 53.957031 L -36.714844 53.367188 C -11.515625 78.5625 29.484375 78.5625 54.679688 53.367188 C 79.878906 28.167969 79.878906 -12.832031 54.679688 -38.03125 L 55.273438 -38.621094 C 67.640625 -26.257812 74.449219 -9.816406 74.449219 7.667969 C 74.449219 25.15625 67.640625 41.59375 55.273438 53.960938 C 42.910156 66.324219 26.46875 73.132812 8.984375 73.132812 C -8.503906 73.132812 -24.941406 66.324219 -37.308594 53.957031 " fill-opacity="1" fill-rule="nonzero"/></g></g></g><g clip-path="url(#b313fd197c)"><path fill="#000000" d="M 1441.507812 655.601562 C 1350.96875 655.601562 1277.257812 581.890625 1277.257812 491.351562 C 1277.257812 400.8125 1350.96875 327.101562 1441.507812 327.101562 C 1532.046875 327.101562 1605.757812 400.8125 1605.757812 491.351562 C 1605.757812 581.890625 1532.046875 655.601562 1441.507812 655.601562 Z M 1441.507812 329.53125 C 1352.261719 329.53125 1279.683594 402.105469 1279.683594 491.351562 C 1279.683594 580.597656 1352.261719 653.175781 1441.507812 653.175781 C 1530.753906 653.175781 1603.332031 580.597656 1603.332031 491.351562 C 1603.332031 402.105469 1530.753906 329.53125 1441.507812 329.53125 Z M 1441.507812 329.53125 " fill-opacity="1" fill-rule="nonzero"/></g><g clip-path="url(#2eb8b6a99f)"><path fill="#000000" d="M 1441.734375 646.453125 C 1356.363281 646.453125 1286.859375 576.949219 1286.859375 491.578125 C 1286.859375 406.207031 1356.363281 336.703125 1441.734375 336.703125 C 1527.105469 336.703125 1596.609375 406.207031 1596.609375 491.578125 C 1596.609375 576.949219 1527.105469 646.453125 1441.734375 646.453125 Z M 1441.734375 338.992188 C 1357.582031 338.992188 1289.148438 407.425781 1289.148438 491.578125 C 1289.148438 575.730469 1357.582031 644.164062 1441.734375 644.164062 C 1525.886719 644.164062 1594.320312 575.730469 1594.320312 491.578125 C 1594.320312 407.425781 1525.886719 338.992188 1441.734375 338.992188 Z M 1441.734375 338.992188 " fill-opacity="1" fill-rule="nonzero"/></g><g clip-path="url(#b63654db11)"><path fill="#000000" d="M 1441.621094 635.464844 C 1362.246094 635.464844 1297.621094 570.84375 1297.621094 491.464844 C 1297.621094 412.089844 1362.246094 347.464844 1441.621094 347.464844 C 1521 347.464844 1585.621094 412.089844 1585.621094 491.464844 C 1585.621094 570.84375 1521 635.464844 1441.621094 635.464844 Z M 1441.621094 349.59375 C 1363.378906 349.59375 1299.75 413.222656 1299.75 491.464844 C 1299.75 569.707031 1363.378906 633.339844 1441.621094 633.339844 C 1519.863281 633.339844 1583.492188 569.707031 1583.492188 491.464844 C 1583.492188 413.222656 1519.863281 349.59375 1441.621094 349.59375 Z M 1441.621094 349.59375 " fill-opacity="1" fill-rule="nonzero"/></g><g clip-path="url(#cc12d89d05)"><path fill="#000000" d="M 1446.085938 629.09375 C 1370.222656 629.09375 1308.460938 567.332031 1308.460938 491.46875 C 1308.460938 415.605469 1370.222656 353.84375 1446.085938 353.84375 C 1521.949219 353.84375 1583.710938 415.605469 1583.710938 491.46875 C 1583.710938 567.332031 1521.949219 629.09375 1446.085938 629.09375 Z M 1446.085938 355.878906 C 1371.304688 355.878906 1310.492188 416.691406 1310.492188 491.46875 C 1310.492188 566.246094 1371.304688 627.058594 1446.085938 627.058594 C 1520.863281 627.058594 1581.675781 566.246094 1581.675781 491.46875 C 1581.675781 416.691406 1520.863281 355.878906 1446.085938 355.878906 Z M 1446.085938 355.878906 " fill-opacity="1" fill-rule="nonzero"/></g><g clip-path="url(#7f04a5302e)"><path fill="#000000" d="M 1451.621094 623.425781 C 1378.859375 623.425781 1319.621094 564.1875 1319.621094 491.425781 C 1319.621094 418.664062 1378.859375 359.425781 1451.621094 359.425781 C 1524.382812 359.425781 1583.621094 418.664062 1583.621094 491.425781 C 1583.621094 564.1875 1524.382812 623.425781 1451.621094 623.425781 Z M 1451.621094 361.375 C 1379.898438 361.375 1321.570312 419.703125 1321.570312 491.425781 C 1321.570312 563.148438 1379.898438 621.472656 1451.621094 621.472656 C 1523.34375 621.472656 1581.671875 563.148438 1581.671875 491.425781 C 1581.671875 419.703125 1523.34375 361.375 1451.621094 361.375 Z M 1451.621094 361.375 " fill-opacity="1" fill-rule="nonzero"/></g><g clip-path="url(#73783ec927)"><path fill="#000000" d="M 1459.078125 617.753906 C 1389.414062 617.753906 1332.703125 561.042969 1332.703125 491.378906 C 1332.703125 421.71875 1389.414062 365.003906 1459.078125 365.003906 C 1528.738281 365.003906 1585.449219 421.71875 1585.449219 491.378906 C 1585.449219 561.042969 1528.738281 617.753906 1459.078125 617.753906 Z M 1459.078125 366.875 C 1390.410156 366.875 1334.570312 422.714844 1334.570312 491.378906 C 1334.570312 560.046875 1390.410156 615.886719 1459.078125 615.886719 C 1527.742188 615.886719 1583.582031 560.046875 1583.582031 491.378906 C 1583.582031 422.714844 1527.742188 366.875 1459.078125 366.875 Z M 1459.078125 366.875 " fill-opacity="1" fill-rule="nonzero"/></g><g clip-path="url(#509069c21c)"><path fill="#000000" d="M 1308.28125 277.261719 C 1272.933594 277.261719 1244.15625 248.484375 1244.15625 213.136719 C 1244.15625 177.789062 1272.933594 149.011719 1308.28125 149.011719 C 1343.628906 149.011719 1372.40625 177.789062 1372.40625 213.136719 C 1372.40625 248.484375 1343.628906 277.261719 1308.28125 277.261719 Z M 1308.28125 149.957031 C 1273.441406 149.957031 1245.105469 178.292969 1245.105469 213.136719 C 1245.105469 247.976562 1273.441406 276.3125 1308.28125 276.3125 C 1343.125 276.3125 1371.460938 247.976562 1371.460938 213.136719 C 1371.460938 178.292969 1343.125 149.957031 1308.28125 149.957031 Z M 1308.28125 149.957031 " fill-opacity="1" fill-rule="nonzero"/></g><g clip-path="url(#bd4816bd1a)"><path fill="#000000" d="M 1308.414062 270.640625 C 1276.785156 270.640625 1251.039062 244.894531 1251.039062 213.265625 C 1251.039062 181.640625 1276.785156 155.890625 1308.414062 155.890625 C 1340.039062 155.890625 1365.789062 181.640625 1365.789062 213.265625 C 1365.789062 244.894531 1340.039062 270.640625 1308.414062 270.640625 Z M 1308.414062 156.738281 C 1277.238281 156.738281 1251.886719 182.09375 1251.886719 213.265625 C 1251.886719 244.441406 1277.238281 269.792969 1308.414062 269.792969 C 1339.589844 269.792969 1364.941406 244.441406 1364.941406 213.265625 C 1364.941406 182.09375 1339.589844 156.738281 1308.414062 156.738281 Z M 1308.414062 156.738281 " fill-opacity="1" fill-rule="nonzero"/></g><g clip-path="url(#9ce7ddf168)"><path fill="#000000" d="M 1308.542969 264.023438 C 1280.636719 264.023438 1257.917969 241.304688 1257.917969 213.398438 C 1257.917969 185.492188 1280.636719 162.773438 1308.542969 162.773438 C 1336.449219 162.773438 1359.167969 185.492188 1359.167969 213.398438 C 1359.167969 241.304688 1336.449219 264.023438 1308.542969 264.023438 Z M 1308.542969 163.523438 C 1281.039062 163.523438 1258.667969 185.890625 1258.667969 213.398438 C 1258.667969 240.90625 1281.039062 263.273438 1308.542969 263.273438 C 1336.050781 263.273438 1358.421875 240.90625 1358.421875 213.398438 C 1358.421875 185.890625 1336.050781 163.523438 1308.542969 163.523438 Z M 1308.542969 163.523438 " fill-opacity="1" fill-rule="nonzero"/></g><g clip-path="url(#24b77a9dc6)"><path fill="#000000" d="M 1308.453125 259.058594 C 1283.234375 259.058594 1262.703125 238.527344 1262.703125 213.308594 C 1262.703125 188.089844 1283.234375 167.558594 1308.453125 167.558594 C 1333.671875 167.558594 1354.203125 188.089844 1354.203125 213.308594 C 1354.203125 238.527344 1333.671875 259.058594 1308.453125 259.058594 Z M 1308.453125 168.234375 C 1283.59375 168.234375 1263.378906 188.449219 1263.378906 213.308594 C 1263.378906 238.164062 1283.59375 258.378906 1308.453125 258.378906 C 1333.3125 258.378906 1353.527344 238.164062 1353.527344 213.308594 C 1353.527344 188.449219 1333.3125 168.234375 1308.453125 168.234375 Z M 1308.453125 168.234375 " fill-opacity="1" fill-rule="nonzero"/></g><g clip-path="url(#7732ca6eb3)"><path fill="#000000" d="M 1308.621094 253.226562 C 1286.710938 253.226562 1268.871094 235.386719 1268.871094 213.476562 C 1268.871094 191.5625 1286.710938 173.726562 1308.621094 173.726562 C 1330.535156 173.726562 1348.371094 191.5625 1348.371094 213.476562 C 1348.371094 235.386719 1330.535156 253.226562 1308.621094 253.226562 Z M 1308.621094 174.3125 C 1287.023438 174.3125 1269.460938 191.878906 1269.460938 213.476562 C 1269.460938 235.074219 1287.023438 252.636719 1308.621094 252.636719 C 1330.21875 252.636719 1347.785156 235.074219 1347.785156 213.476562 C 1347.785156 191.878906 1330.21875 174.3125 1308.621094 174.3125 Z M 1308.621094 174.3125 " fill-opacity="1" fill-rule="nonzero"/></g><g clip-path="url(#4af56710b8)"><path fill="#000000" d="M 1308.902344 284.570312 C 1269.417969 284.570312 1237.277344 252.425781 1237.277344 212.945312 C 1237.277344 173.464844 1269.417969 141.320312 1308.902344 141.320312 C 1348.382812 141.320312 1380.527344 173.464844 1380.527344 212.945312 C 1380.527344 252.425781 1348.382812 284.570312 1308.902344 284.570312 Z M 1308.902344 142.378906 C 1269.984375 142.378906 1238.335938 174.027344 1238.335938 212.945312 C 1238.335938 251.863281 1269.984375 283.511719 1308.902344 283.511719 C 1347.816406 283.511719 1379.46875 251.863281 1379.46875 212.945312 C 1379.46875 174.027344 1347.816406 142.378906 1308.902344 142.378906 Z M 1308.902344 142.378906 " fill-opacity="1" fill-rule="nonzero"/></g></svg>